<svg width="16" height="16" viewBox="0 0 16 16" fill="none" xmlns="http://www.w3.org/2000/svg">
<path d="M8 0C3.58187 0 0 3.58187 0 8C0 12.4181 3.58187 16 8 16C12.4181 16 16 12.4181 16 8C16 3.58187 12.4181 0 8 0ZM9.33333 13.2667H6.66667V6.86667H9.33333V13.2667ZM8 5.4C7.64638 5.4 7.30724 5.25952 7.05719 5.00948C6.80714 4.75943 6.66667 4.42029 6.66667 4.06667C6.66667 3.71304 6.80714 3.37391 7.05719 3.12386C7.30724 2.87381 7.64638 2.73333 8 2.73333C8.35362 2.73333 8.69276 2.87381 8.94281 3.12386C9.19286 3.37391 9.33333 3.71304 9.33333 4.06667C9.33333 4.42029 9.19286 4.75943 8.94281 5.00948C8.69276 5.25952 8.35362 5.4 8 5.4Z" fill="#424752"/>
</svg>
