<svg width="22" height="22" viewBox="0 0 22 22" fill="none" xmlns="http://www.w3.org/2000/svg">
<path d="M18.0349 9.24304C18.8729 9.24304 19.5523 8.56367 19.5523 7.72562C19.5523 6.88757 18.8729 6.20819 18.0349 6.20819C17.1968 6.20819 16.5175 6.88757 16.5175 7.72562C16.5175 8.56367 17.1968 9.24304 18.0349 9.24304Z" fill="#424752"/>
<path d="M16.5174 10.5414H19.5514V13.7914C19.5514 14.6288 18.8714 15.3079 18.034 15.3079H16.5174V10.5414ZM1.7832 4.04059V17.9081L11.7509 19.6673V2.28137L1.7832 4.04059ZM9.15076 8.85066L7.41732 8.89422V14.0074H6.1168V8.98045L4.38425 9.06756V7.89771L9.15076 7.63814V8.85066ZM12.6168 9.24091V16.6085H14.3502C15.0685 16.6085 15.6507 16.0262 15.6507 15.3088V9.24091H12.6168ZM13.9173 4.90731C13.3964 4.90731 12.935 5.14199 12.6168 5.50557V7.77682C12.9341 8.1404 13.3964 8.37508 13.9173 8.37508C14.3771 8.37508 14.8181 8.1924 15.1433 7.86724C15.4685 7.54207 15.6512 7.10105 15.6512 6.64119C15.6512 6.18134 15.4685 5.74032 15.1433 5.41515C14.8181 5.08999 14.3771 4.90731 13.9173 4.90731Z" fill="#424752"/>
</svg>
