<svg width="600" height="359" viewBox="0 0 600 359" fill="none" xmlns="http://www.w3.org/2000/svg">
<g clip-path="url(#clip0_686_8309)">
<path d="M459.375 354.66C451.693 348.169 447.027 337.915 448.251 327.933C449.474 317.951 457.053 308.775 466.884 306.655C476.715 304.535 487.921 310.403 490.907 320.006C492.551 301.491 494.444 282.201 504.288 266.434C513.201 252.157 528.639 241.942 545.37 240.114C562.101 238.287 579.716 245.189 590.151 258.395C600.585 271.6 603.14 290.798 595.832 305.96C590.449 317.128 580.53 325.44 570.138 332.202C536.557 353.869 496.282 362.68 456.722 357.014L459.375 354.66Z" fill="#F2F2F2"/>
<path d="M573.605 245.572C559.8 256.816 547.135 269.392 535.794 283.118C518.045 304.525 503.683 328.527 493.207 354.286C492.44 356.165 495.491 356.984 496.25 355.125C513.39 313.261 540.753 276.362 575.837 247.803C577.412 246.52 575.168 244.299 573.605 245.572Z" fill="white"/>
<path d="M193.15 352.896C203.7 343.981 210.109 329.898 208.428 316.187C206.748 302.477 196.338 289.873 182.836 286.961C169.333 284.05 153.941 292.109 149.84 305.299C147.582 279.869 144.982 253.374 131.461 231.718C119.219 212.109 98.0154 198.078 75.0353 195.568C52.0552 193.058 27.8602 202.538 13.5283 220.676C-0.803515 238.814 -4.3126 265.183 5.72504 286.006C13.1194 301.347 26.7425 312.763 41.016 322.051C86.5537 351.682 143.043 364.04 196.793 356.13" fill="#F2F2F2"/>
<path d="M36.2529 203.064C55.2143 218.508 72.6094 235.781 88.1865 254.634C103.766 273.467 117.482 293.766 129.142 315.248C135.66 327.298 141.515 339.695 146.681 352.383C147.734 354.964 143.543 356.088 142.501 353.535C133.351 331.166 122.03 309.747 108.702 289.586C95.438 269.498 80.2569 250.744 63.3717 233.587C53.8213 223.888 43.7449 214.721 33.188 206.128C31.0242 204.366 34.1069 201.316 36.2528 203.064L36.2529 203.064Z" fill="white"/>
<path d="M430.69 357.931H178.966V99.6552C178.966 44.705 223.671 0 278.621 0H331.035C385.985 0 430.69 44.705 430.69 99.6552V357.931Z" fill="#F2F2F2"/>
<path d="M378.276 357.931H178.965V99.6552C178.91 78.5995 185.578 58.0761 197.997 41.0729C198.455 40.4489 198.911 39.833 199.382 39.2238C205.389 31.3452 212.538 24.4067 220.592 18.6372C221.047 18.3062 221.504 17.9809 221.967 17.6556C228.707 12.9917 235.997 9.17913 243.672 6.30455C244.128 6.13179 244.592 5.9587 245.056 5.79268C251.997 3.31549 259.193 1.61863 266.51 0.733424C266.964 0.671459 267.429 0.62297 267.895 0.57448C275.025 -0.187913 282.217 -0.187913 289.347 0.57448C289.811 0.62297 290.277 0.671453 290.736 0.734087C298.051 1.61935 305.245 3.31601 312.185 5.79271C312.649 5.95873 313.113 6.13181 313.57 6.3049C321.151 9.14322 328.355 12.8989 335.023 17.4882C335.486 17.8065 335.95 18.1318 336.406 18.457C340.921 21.6796 345.162 25.2698 349.085 29.1908C352.231 32.336 355.163 35.6885 357.86 39.2259C358.33 39.833 358.786 40.4489 359.243 41.0719C371.663 58.0753 378.331 78.5991 378.276 99.6552V357.931Z" fill="#CCCCCC"/>
<path d="M362.069 242.414C368.163 242.414 373.103 237.474 373.103 231.379C373.103 225.285 368.163 220.345 362.069 220.345C355.974 220.345 351.034 225.285 351.034 231.379C351.034 237.474 355.974 242.414 362.069 242.414Z" fill="#07662D"/>
<path d="M410.069 350.195H401.614L397.591 317.583L410.07 317.583L410.069 350.195Z" fill="#FFB8B8"/>
<path d="M395.573 347.779H411.88V358.046H385.307C385.307 356.698 385.572 355.363 386.088 354.117C386.604 352.871 387.36 351.74 388.314 350.786C389.267 349.833 390.399 349.077 391.645 348.561C392.89 348.045 394.225 347.779 395.573 347.779Z" fill="#2F2E41"/>
<path d="M452.137 350.195H443.682L439.659 317.583L452.138 317.583L452.137 350.195Z" fill="#FFB8B8"/>
<path d="M437.643 347.779H453.949V358.046H427.376C427.376 356.698 427.642 355.363 428.158 354.117C428.673 352.871 429.43 351.74 430.383 350.786C431.336 349.833 432.468 349.077 433.714 348.561C434.959 348.045 436.295 347.779 437.643 347.779Z" fill="#2F2E41"/>
<path d="M367.654 233.565C367.045 232.669 366.641 231.65 366.469 230.581C366.297 229.512 366.362 228.418 366.658 227.376C366.955 226.334 367.476 225.37 368.186 224.552C368.895 223.733 369.775 223.08 370.764 222.639L399.506 143.421L413.649 151.139L380.832 226.843C381.463 228.554 381.445 230.436 380.781 232.135C380.117 233.833 378.853 235.229 377.229 236.057C375.604 236.886 373.732 237.09 371.968 236.631C370.203 236.171 368.668 235.081 367.654 233.565Z" fill="#FFB8B8"/>
<path d="M447.818 248.451C446.878 247.912 446.068 247.174 445.445 246.288C444.821 245.402 444.4 244.391 444.21 243.325C444.019 242.258 444.065 241.163 444.344 240.117C444.623 239.07 445.128 238.097 445.823 237.267L436.919 153.467L453.014 154.203L456.714 236.631C458.032 237.891 458.841 239.591 458.989 241.409C459.137 243.226 458.613 245.035 457.516 246.492C456.42 247.949 454.827 248.953 453.039 249.314C451.252 249.675 449.394 249.368 447.818 248.451Z" fill="#FFB8B8"/>
<path d="M422.142 128.747C431.497 128.747 439.08 121.164 439.08 111.809C439.08 102.454 431.497 94.87 422.142 94.87C412.787 94.87 405.203 102.454 405.203 111.809C405.203 121.164 412.787 128.747 422.142 128.747Z" fill="#FFB8B8"/>
<path d="M447.71 229.392H396.644L396.705 228.995C396.797 228.401 405.806 169.382 399.161 150.073C398.495 148.176 398.553 146.099 399.326 144.242C400.099 142.385 401.531 140.88 403.347 140.016H403.347C412.845 135.543 431.077 130.036 446.465 143.401C448.729 145.401 450.497 147.899 451.629 150.7C452.762 153.5 453.227 156.525 452.988 159.537L447.71 229.392Z" fill="#07662D"/>
<path d="M406.452 178.104L383.461 173.44L394.238 147.902C394.883 145.428 396.482 143.312 398.686 142.016C400.889 140.72 403.517 140.351 405.992 140.99C408.467 141.629 410.587 143.224 411.888 145.424C413.189 147.625 413.564 150.251 412.931 152.728L406.452 178.104Z" fill="#07662D"/>
<path d="M435.897 186.764L434.515 155.08C433.466 149.124 436.876 143.494 442.12 142.574C447.365 141.657 452.486 145.788 453.539 151.787L458.734 181.393L435.897 186.764Z" fill="#07662D"/>
<path d="M446.011 225.599C454.228 256.893 455.125 296.681 452.908 340.082L441.873 338.703L421.873 255.944L410.839 340.082L398.425 339.392C394.717 293.854 391.106 254.761 397.046 229.047L446.011 225.599Z" fill="#2F2E41"/>
<path d="M433.303 124.899C430.143 128.265 424.275 126.458 423.863 121.86C423.831 121.503 423.833 121.144 423.87 120.787C424.082 118.75 425.259 116.901 424.977 114.75C424.914 114.215 424.714 113.705 424.398 113.268C421.88 109.896 415.969 114.776 413.592 111.724C412.135 109.852 413.848 106.905 412.73 104.813C411.254 102.052 406.882 103.414 404.141 101.902C401.091 100.219 401.273 95.5396 403.281 92.6931C405.73 89.2217 410.023 87.3693 414.263 87.1023C418.502 86.8354 422.713 87.9815 426.671 89.524C431.168 91.2767 435.628 93.6989 438.396 97.6533C441.761 102.462 442.085 108.928 440.402 114.551C439.378 117.972 435.884 122.151 433.303 124.899Z" fill="#2F2E41"/>
<path d="M579.298 358.375H70.1293C69.9119 358.374 69.7037 358.287 69.5502 358.133C69.3967 357.98 69.3105 357.771 69.3105 357.554C69.3105 357.336 69.3967 357.128 69.5502 356.974C69.7037 356.82 69.9119 356.733 70.1293 356.733H579.298C579.515 356.733 579.723 356.82 579.877 356.974C580.03 357.128 580.116 357.336 580.116 357.554C580.116 357.771 580.03 357.98 579.877 358.133C579.723 358.287 579.515 358.374 579.298 358.375Z" fill="#3F3D56"/>
<path d="M323.448 283.103H233.793C232.613 283.11 231.478 282.648 230.637 281.818C229.797 280.989 229.32 279.86 229.311 278.679V78.5622C229.32 77.3815 229.797 76.2526 230.637 75.4232C231.478 74.5937 232.613 74.1315 233.793 74.1379H323.448C324.629 74.1315 325.764 74.5937 326.605 75.4232C327.445 76.2526 327.922 77.3815 327.931 78.5622V278.679C327.922 279.86 327.445 280.989 326.605 281.818C325.764 282.648 324.629 283.11 323.448 283.103Z" fill="white"/>
<path d="M327.931 138.889H229.311V140.269H327.931V138.889Z" fill="#CCCCCC"/>
<path d="M328.276 217.586H229.655V218.965H328.276V217.586Z" fill="#CCCCCC"/>
<path d="M261.724 74.1379H260.345V283.793H261.724V74.1379Z" fill="#CCCCCC"/>
<path d="M296.206 74.1379H294.827V283.793H296.206V74.1379Z" fill="#CCCCCC"/>
</g>
<defs>
<clipPath id="clip0_686_8309">
<rect width="600" height="358.716" fill="white"/>
</clipPath>
</defs>
</svg>
