<svg width="600" height="287" viewBox="0 0 600 287" fill="none" xmlns="http://www.w3.org/2000/svg">
<g clip-path="url(#clip0_686_8255)">
<path d="M468.686 43.109H321.559V40.0768H254.846V43.109H107.112C104.472 43.109 101.941 44.1576 100.074 46.0242C98.2078 47.8907 97.1592 50.4222 97.1592 53.0619V254.523C97.1592 257.162 98.2078 259.694 100.074 261.561C101.941 263.427 104.472 264.476 107.112 264.476H468.686C471.326 264.476 473.857 263.427 475.724 261.561C477.59 259.694 478.639 257.162 478.639 254.523V53.0608C478.638 50.4213 477.59 47.89 475.723 46.0238C473.857 44.1575 471.325 43.109 468.686 43.109Z" fill="#3F3D56"/>
<path d="M465.295 60.6968H110.503V260.836H465.295V60.6968Z" fill="#E6E6E6"/>
<path d="M450.369 71.2808H125.549V244.276H450.369V71.2808Z" fill="white"/>
<path d="M287.596 55.2391C289.606 55.2391 291.235 53.6099 291.235 51.6001C291.235 49.5903 289.606 47.9611 287.596 47.9611C285.586 47.9611 283.957 49.5903 283.957 51.6001C283.957 53.6099 285.586 55.2391 287.596 55.2391Z" fill="#07662D"/>
<path d="M488.6 257.197H453.974V254.702C453.974 254.571 453.922 254.445 453.829 254.352C453.737 254.259 453.611 254.207 453.48 254.207H441.608C441.477 254.207 441.351 254.259 441.258 254.352C441.165 254.445 441.113 254.571 441.113 254.702V257.197H433.694V254.702C433.694 254.571 433.642 254.445 433.549 254.352C433.456 254.259 433.33 254.207 433.199 254.207H421.327C421.196 254.207 421.07 254.259 420.977 254.352C420.885 254.445 420.832 254.571 420.832 254.702V257.197H413.413V254.702C413.413 254.571 413.361 254.445 413.268 254.352C413.175 254.259 413.049 254.207 412.918 254.207H401.047C400.915 254.207 400.789 254.259 400.697 254.352C400.604 254.445 400.552 254.571 400.552 254.702V257.197H393.132V254.702C393.132 254.571 393.08 254.445 392.987 254.352C392.895 254.259 392.769 254.207 392.638 254.207H380.766C380.635 254.207 380.509 254.259 380.417 254.352C380.324 254.445 380.272 254.571 380.272 254.702V257.197H372.852V254.702C372.852 254.571 372.799 254.445 372.707 254.352C372.614 254.259 372.488 254.207 372.357 254.207H360.486C360.354 254.207 360.229 254.259 360.136 254.352C360.043 254.445 359.991 254.571 359.991 254.702V257.197H352.571V254.702C352.571 254.571 352.519 254.445 352.426 254.352C352.333 254.259 352.207 254.207 352.076 254.207H340.207C340.076 254.207 339.95 254.259 339.857 254.352C339.765 254.445 339.712 254.571 339.712 254.702V257.197H332.29V254.702C332.29 254.571 332.238 254.445 332.145 254.352C332.053 254.259 331.927 254.207 331.795 254.207H238.802C238.67 254.207 238.545 254.259 238.452 254.352C238.359 254.445 238.307 254.571 238.307 254.702V257.197H230.887V254.702C230.887 254.571 230.835 254.445 230.742 254.352C230.65 254.259 230.524 254.207 230.393 254.207H218.521C218.39 254.207 218.264 254.259 218.171 254.352C218.078 254.445 218.026 254.571 218.026 254.702V257.197H210.607V254.702C210.607 254.571 210.555 254.445 210.462 254.352C210.369 254.259 210.243 254.207 210.112 254.207H198.241C198.11 254.207 197.984 254.259 197.891 254.352C197.798 254.445 197.746 254.571 197.746 254.702V257.197H190.326V254.702C190.326 254.571 190.274 254.445 190.181 254.352C190.088 254.259 189.962 254.207 189.831 254.207H177.96C177.829 254.207 177.703 254.259 177.61 254.352C177.517 254.445 177.465 254.571 177.465 254.702V257.197H170.047V254.702C170.047 254.571 169.995 254.445 169.902 254.352C169.809 254.259 169.683 254.207 169.552 254.207H157.679C157.548 254.207 157.422 254.259 157.33 254.352C157.237 254.445 157.185 254.571 157.185 254.702V257.197H149.765V254.702C149.765 254.571 149.713 254.445 149.62 254.352C149.528 254.259 149.402 254.207 149.27 254.207H137.399C137.268 254.207 137.142 254.259 137.049 254.352C136.956 254.445 136.904 254.571 136.904 254.702V257.197H129.485V254.702C129.485 254.571 129.432 254.445 129.34 254.352C129.247 254.259 129.121 254.207 128.99 254.207H117.116C116.985 254.207 116.859 254.259 116.766 254.352C116.673 254.445 116.621 254.571 116.621 254.702V257.197H93.8697C90.7211 257.197 87.7015 258.448 85.4752 260.674C83.2488 262.901 81.998 265.92 81.998 269.069V274.437C81.998 277.585 83.2488 280.605 85.4752 282.831C87.7015 285.057 90.7211 286.308 93.8697 286.308H488.6C491.748 286.308 494.768 285.057 496.994 282.831C499.22 280.605 500.471 277.586 500.471 274.437V269.069C500.471 265.921 499.22 262.901 496.994 260.675C494.768 258.448 491.748 257.198 488.6 257.198V257.197Z" fill="#3F3D56"/>
<path d="M359.779 83.4143H216.141V234.404H359.779V83.4143Z" fill="#E6E6E6"/>
<path d="M600 285.804H0V286.935H600V285.804Z" fill="#E6E6E6"/>
<path d="M541.729 246.295C549.859 255.019 550.279 267.841 550.279 267.841C550.279 267.841 537.518 266.519 529.389 257.795C521.259 249.072 520.839 236.25 520.839 236.25C520.839 236.25 533.599 237.572 541.729 246.295Z" fill="#07662D"/>
<path d="M567.322 259.912C558.599 268.042 545.776 268.462 545.776 268.462C545.776 268.462 547.099 255.701 555.822 247.572C564.545 239.442 577.368 239.022 577.368 239.022C577.368 239.022 576.046 251.782 567.322 259.912Z" fill="#07662D"/>
<path d="M565.154 285.804H533.068C532.452 285.804 531.849 285.631 531.327 285.304C530.805 284.978 530.385 284.511 530.116 283.957L523.131 269.597C522.887 269.097 522.774 268.543 522.803 267.987C522.833 267.431 523.003 266.892 523.298 266.42C523.593 265.948 524.004 265.559 524.491 265.29C524.978 265.021 525.525 264.879 526.082 264.88H572.14C572.697 264.879 573.244 265.021 573.731 265.29C574.218 265.56 574.629 265.948 574.924 266.42C575.219 266.892 575.389 267.431 575.419 267.987C575.448 268.543 575.335 269.097 575.091 269.597L568.106 283.958C567.837 284.512 567.417 284.978 566.895 285.305C566.373 285.631 565.77 285.805 565.154 285.804L565.154 285.804Z" fill="#E5E5E5"/>
<path d="M34.4713 246.295C42.601 255.019 43.0212 267.841 43.0212 267.841C43.0212 267.841 30.2606 266.519 22.1309 257.795C14.0012 249.072 13.5811 236.25 13.5811 236.25C13.5811 236.25 26.3417 237.572 34.4713 246.295Z" fill="#E5E5E5"/>
<path d="M52.8071 285.804H20.721C20.1053 285.804 19.502 285.631 18.9801 285.304C18.4582 284.978 18.0387 284.511 17.7696 283.957L10.7839 269.597C10.54 269.097 10.4274 268.543 10.4567 267.987C10.486 267.431 10.6563 266.892 10.9515 266.42C11.2467 265.948 11.6571 265.559 12.1441 265.29C12.6311 265.021 13.1787 264.879 13.7353 264.88H59.7934C60.35 264.879 60.8975 265.021 61.3845 265.29C61.8716 265.559 62.282 265.948 62.5772 266.42C62.8724 266.892 63.0427 267.431 63.072 267.987C63.1013 268.543 62.9887 269.097 62.7447 269.597L55.7591 283.958C55.49 284.512 55.0705 284.978 54.5486 285.305C54.0266 285.631 53.4233 285.805 52.8077 285.804L52.8071 285.804Z" fill="#E5E5E5"/>
<path d="M305.291 126.157C315.834 126.157 324.381 117.61 324.381 107.067C324.381 96.5241 315.834 87.9773 305.291 87.9773C294.748 87.9773 286.201 96.5241 286.201 107.067C286.201 117.61 294.748 126.157 305.291 126.157Z" fill="#A0616A"/>
<path d="M261.368 234.715L273.696 157.107C274.352 152.981 275.878 149.041 278.175 145.551C280.471 142.06 283.484 139.099 287.014 136.864C290.544 134.629 294.509 133.171 298.646 132.587C302.783 132.004 306.997 132.308 311.008 133.479C318.019 135.507 324.023 140.077 327.846 146.294C331.67 152.512 333.038 159.932 331.683 167.104L318.789 236.412L261.368 234.715Z" fill="#07662D"/>
<path d="M310.561 248.601C311.514 247.971 312.318 247.14 312.916 246.166C313.513 245.192 313.89 244.099 314.019 242.964C314.149 241.829 314.028 240.679 313.665 239.596C313.302 238.512 312.705 237.522 311.918 236.694L324.662 212.016L310.31 213.547L300.409 236.747C299.111 238.163 298.376 240.006 298.344 241.926C298.311 243.847 298.983 245.713 300.233 247.172C301.482 248.631 303.223 249.582 305.125 249.845C307.028 250.109 308.962 249.666 310.56 248.601L310.561 248.601Z" fill="#A0616A"/>
<path d="M313.29 232.341C312.585 232.241 311.927 231.929 311.404 231.446L306.528 226.941C306.002 226.452 305.638 225.813 305.486 225.11C305.335 224.408 305.402 223.676 305.68 223.013L315.425 199.915L314.042 154.276C314.446 151.315 316.01 148.636 318.389 146.828C320.768 145.02 323.768 144.231 326.729 144.635C329.69 145.039 332.369 146.602 334.177 148.982C335.985 151.361 336.774 154.361 336.37 157.322L338.734 186.011C339.452 194.719 336.984 203.391 331.787 210.414L316.59 230.958C316.298 231.353 315.926 231.682 315.498 231.924C315.07 232.165 314.596 232.314 314.107 232.36C313.835 232.386 313.561 232.38 313.29 232.341Z" fill="#07662D"/>
<path d="M195.358 96.6663C195.566 97.7898 196.018 98.854 196.682 99.784C197.346 100.714 198.205 101.487 199.2 102.049C200.195 102.611 201.301 102.948 202.44 103.036C203.58 103.124 204.724 102.961 205.794 102.559L223.551 123.916L227.735 110.103L210.232 91.9398C209.433 90.1935 208.023 88.8 206.268 88.0221C204.512 87.2442 202.532 87.1358 200.702 87.7173C198.872 88.2989 197.319 89.5302 196.334 91.1788C195.35 92.8275 195.003 94.7794 195.359 96.6663H195.358Z" fill="#A0616A"/>
<path d="M209.268 105.519C209.635 104.908 210.179 104.424 210.827 104.131L216.878 101.398C217.534 101.103 218.264 101.018 218.97 101.152C219.677 101.286 220.325 101.634 220.827 102.148L238.297 120.127L280.864 136.649C282.137 137.404 283.249 138.403 284.136 139.588C285.023 140.773 285.667 142.121 286.033 143.555C286.399 144.99 286.478 146.482 286.267 147.947C286.056 149.412 285.558 150.821 284.802 152.094C284.046 153.367 283.046 154.478 281.86 155.364C280.675 156.25 279.326 156.894 277.891 157.259C276.457 157.623 274.964 157.702 273.499 157.49C272.034 157.277 270.626 156.779 269.354 156.022L242.013 147.012C233.715 144.279 226.691 138.624 222.25 131.1L209.257 109.097C209.007 108.673 208.85 108.203 208.794 107.714C208.738 107.226 208.786 106.732 208.934 106.263C209.016 106.003 209.129 105.753 209.27 105.519L209.268 105.519Z" fill="#07662D"/>
<path opacity="0.1" d="M320.775 173.261L319.998 198.132L305.68 223.015L317.635 195.288L320.775 173.261Z" fill="black"/>
<path d="M292.363 97.4987C294.332 99.8291 297.664 100.486 300.738 100.756C306.98 101.303 316.058 100.417 322.159 99.0069C322.594 103.227 321.407 107.777 323.892 111.249C325.058 107.046 325.735 102.723 325.912 98.365C325.987 96.4988 325.958 94.5626 325.198 92.8468C324.439 91.1311 322.782 89.6749 320.875 89.6597C322.292 88.5846 323.952 87.8749 325.708 87.5933L319.669 84.5582L321.22 82.9658L310.285 82.2968L313.452 80.2847C308.685 79.6304 303.863 79.4787 299.065 79.8323C296.837 79.9963 294.507 80.3102 292.702 81.6012C290.897 82.8923 289.853 85.458 290.974 87.3535C289.571 87.5839 288.25 88.1687 287.136 89.0526C286.022 89.9364 285.152 91.09 284.609 92.404C283.804 94.4444 283.878 96.7109 284.126 98.8853C284.538 102.363 285.346 105.782 286.535 109.076" fill="#2F2E41"/>
<path d="M373.971 49.6761L200.023 89.8352C199.169 90.0313 198.272 89.8807 197.529 89.4162C196.785 88.9517 196.257 88.2114 196.058 87.3577L186.097 44.2086C185.901 43.3544 186.051 42.4572 186.516 41.7139C186.98 40.9706 187.72 40.4419 188.574 40.2437L362.522 0.0846889C363.376 -0.111454 364.274 0.0392333 365.017 0.503691C365.76 0.96815 366.289 1.70845 366.487 2.56222L376.449 45.7113C376.645 46.5656 376.494 47.4627 376.03 48.206C375.565 48.9492 374.825 49.478 373.971 49.6761Z" fill="white"/>
<path d="M373.971 49.6761L200.023 89.8352C199.169 90.0313 198.272 89.8807 197.529 89.4162C196.785 88.9517 196.257 88.2114 196.058 87.3577L186.097 44.2086C185.901 43.3544 186.051 42.4572 186.516 41.7139C186.98 40.9706 187.72 40.4419 188.574 40.2437L362.522 0.0846889C363.376 -0.111454 364.274 0.0392333 365.017 0.503691C365.76 0.96815 366.289 1.70845 366.487 2.56222L376.449 45.7113C376.645 46.5656 376.494 47.4627 376.03 48.206C375.565 48.9492 374.825 49.478 373.971 49.6761ZM188.872 41.5325C188.359 41.6514 187.915 41.9687 187.636 42.4147C187.358 42.8607 187.267 43.3991 187.385 43.9117L197.347 87.0608C197.466 87.5732 197.783 88.0176 198.229 88.2963C198.675 88.575 199.213 88.6654 199.726 88.5475L373.674 48.3884C374.186 48.2697 374.631 47.9524 374.909 47.5064C375.188 47.0603 375.279 46.5219 375.161 46.0092L365.199 2.85962C365.08 2.3472 364.763 1.90284 364.317 1.6241C363.871 1.34536 363.332 1.25502 362.82 1.37291L188.872 41.5325Z" fill="#E6E6E6"/>
<path d="M249.229 41.3991C248.942 41.4648 248.67 41.5865 248.43 41.7572C248.19 41.9279 247.985 42.1443 247.829 42.394C247.672 42.6438 247.566 42.9219 247.517 43.2126C247.468 43.5033 247.476 43.8008 247.542 44.0882C247.608 44.3755 247.73 44.6471 247.9 44.8874C248.071 45.1277 248.288 45.332 248.537 45.4886C248.787 45.6453 249.065 45.7511 249.356 45.8002C249.647 45.8493 249.944 45.8406 250.232 45.7747L250.239 45.773L353.338 21.9708C353.917 21.8362 354.419 21.4771 354.734 20.9726C355.048 20.468 355.15 19.8592 355.016 19.2798C354.883 18.7003 354.524 18.1977 354.02 17.8822C353.516 17.5666 352.908 17.464 352.328 17.5969L249.229 41.3991Z" fill="#E6E6E6"/>
<path d="M252.259 54.5214C251.971 54.5871 251.7 54.7088 251.459 54.8796C251.219 55.0503 251.015 55.2667 250.858 55.5164C250.701 55.7661 250.595 56.0443 250.546 56.3349C250.497 56.6256 250.505 56.9232 250.571 57.2105C250.637 57.4979 250.759 57.7695 250.93 58.0098C251.101 58.2501 251.317 58.4544 251.567 58.611C251.817 58.7676 252.095 58.8735 252.385 58.9226C252.676 58.9717 252.974 58.963 253.261 58.8971L253.269 58.8953L297.632 48.6532C298.212 48.5202 298.716 48.1621 299.032 47.6579C299.348 47.1537 299.451 46.5446 299.318 45.9645C299.185 45.3843 298.827 44.8807 298.323 44.5644C297.819 44.2481 297.21 44.1449 296.63 44.2776L296.622 44.2793L252.259 54.5214Z" fill="#E6E6E6"/>
<path d="M221.045 70.4827C228.483 70.4827 234.512 64.4533 234.512 57.0157C234.512 49.5782 228.483 43.5488 221.045 43.5488C213.607 43.5488 207.578 49.5782 207.578 57.0157C207.578 64.4533 213.607 70.4827 221.045 70.4827Z" fill="#07662D"/>
<path d="M220.666 64.7845C220.226 64.8869 219.763 64.8433 219.35 64.6601L219.324 64.6487L213.905 62.1887C213.653 62.0747 213.427 61.9122 213.238 61.7106C213.049 61.5089 212.902 61.272 212.805 61.0134C212.708 60.7548 212.663 60.4796 212.672 60.2036C212.681 59.9275 212.745 59.656 212.859 59.4045C212.974 59.1531 213.137 58.9267 213.339 58.7382C213.54 58.5497 213.778 58.4029 214.036 58.3062C214.295 58.2094 214.57 58.1646 214.846 58.1743C215.122 58.184 215.394 58.2481 215.645 58.3628L219.156 59.9613L224.082 49.1376C224.313 48.6308 224.735 48.2364 225.257 48.0412C225.778 47.8459 226.356 47.8658 226.863 48.0963L226.833 48.167L226.864 48.096C227.371 48.3272 227.765 48.7499 227.96 49.2713C228.155 49.7927 228.135 50.3702 227.905 50.8771L222.112 63.6098C221.977 63.9031 221.777 64.1616 221.527 64.3651C221.277 64.5687 220.983 64.7118 220.668 64.7835L220.666 64.7845Z" fill="white"/>
</g>
<defs>
<clipPath id="clip0_686_8255">
<rect width="600" height="286.935" fill="white"/>
</clipPath>
</defs>
</svg>
