<svg width="109" height="109" viewBox="0 0 109 109" fill="none" xmlns="http://www.w3.org/2000/svg">
<path d="M54.3937 108.787C84.4345 108.787 108.787 84.4345 108.787 54.3937C108.787 24.3529 84.4345 0 54.3937 0C24.3529 0 0 24.3529 0 54.3937C0 84.4345 24.3529 108.787 54.3937 108.787Z" fill="#1ABE35"/>
<path d="M49.0034 76.1433C47.7797 76.1454 46.5885 75.7495 45.6095 75.0153L45.5487 74.9698L32.7655 65.191C32.1734 64.7372 31.6766 64.1711 31.3033 63.5252C30.93 62.8793 30.6876 62.1662 30.5899 61.4266C30.4922 60.687 30.5412 59.9354 30.7339 59.2148C30.9267 58.4941 31.2595 57.8184 31.7134 57.2264C32.1673 56.6343 32.7334 56.1375 33.3793 55.7642C34.0252 55.3909 34.7383 55.1485 35.4779 55.0508C36.2175 54.9531 36.9691 55.0021 37.6897 55.1948C38.4104 55.3876 39.0861 55.7205 39.6781 56.1743L47.958 62.5238L67.524 36.9978C67.9777 36.406 68.5436 35.9094 69.1892 35.5363C69.8348 35.1631 70.5476 34.9208 71.2869 34.8232C72.0262 34.7255 72.7775 34.7745 73.4978 34.9672C74.2182 35.1599 74.8936 35.4925 75.4854 35.9463L75.487 35.9475L75.3656 36.1161L75.4903 35.9475C76.6842 36.8651 77.4654 38.2189 77.6623 39.7117C77.8592 41.2046 77.4558 42.7146 76.5407 43.9104L53.5268 73.9212C52.9944 74.6127 52.3098 75.1722 51.5262 75.5564C50.7426 75.9406 49.8811 76.1391 49.0084 76.1366L49.0034 76.1433Z" fill="white"/>
</svg>
